<mxfile host="app.diagrams.net" agent="Mozilla/5.0 (Windows NT 10.0; Win64; x64) AppleWebKit/537.36 (KHTML, like Gecko) Chrome/129.0.0.0 Safari/537.36" version="24.7.17">
  <diagram name="Page-1" id="BZoabZqiC1ExDDiLnxKO">
    <mxGraphModel dx="2324" dy="819" grid="1" gridSize="10" guides="1" tooltips="1" connect="1" arrows="1" fold="1" page="1" pageScale="1" pageWidth="850" pageHeight="1100" math="0" shadow="0">
      <root>
        <mxCell id="0" />
        <mxCell id="1" parent="0" />
        <mxCell id="3cUWr9S7yl-lD84JsGKt-1" value="" style="ellipse;whiteSpace=wrap;html=1;aspect=fixed;fillColor=#1ba1e2;strokeColor=#006EAF;fontColor=#ffffff;" vertex="1" parent="1">
          <mxGeometry x="270" y="70" width="50" height="50" as="geometry" />
        </mxCell>
        <mxCell id="3cUWr9S7yl-lD84JsGKt-2" value="&lt;font style=&quot;font-size: 14px;&quot;&gt;&lt;b&gt;User&lt;/b&gt;&lt;/font&gt;" style="text;html=1;align=center;verticalAlign=middle;whiteSpace=wrap;rounded=0;" vertex="1" parent="1">
          <mxGeometry x="330" y="80" width="60" height="30" as="geometry" />
        </mxCell>
        <mxCell id="3cUWr9S7yl-lD84JsGKt-3" value="" style="endArrow=none;html=1;rounded=0;entryX=0.5;entryY=1;entryDx=0;entryDy=0;" edge="1" parent="1" target="3cUWr9S7yl-lD84JsGKt-1">
          <mxGeometry width="50" height="50" relative="1" as="geometry">
            <mxPoint x="295" y="160" as="sourcePoint" />
            <mxPoint x="190" y="260" as="targetPoint" />
          </mxGeometry>
        </mxCell>
        <mxCell id="3cUWr9S7yl-lD84JsGKt-4" value="Login" style="rounded=1;whiteSpace=wrap;html=1;fillColor=default;strokeColor=default;perimeterSpacing=1;" vertex="1" parent="1">
          <mxGeometry x="237.5" y="150" width="115" height="20" as="geometry" />
        </mxCell>
        <mxCell id="3cUWr9S7yl-lD84JsGKt-6" value="" style="endArrow=none;html=1;rounded=0;entryX=0.5;entryY=1;entryDx=0;entryDy=0;exitX=0.5;exitY=0;exitDx=0;exitDy=0;" edge="1" parent="1" source="3cUWr9S7yl-lD84JsGKt-7" target="3cUWr9S7yl-lD84JsGKt-4">
          <mxGeometry width="50" height="50" relative="1" as="geometry">
            <mxPoint x="296" y="210" as="sourcePoint" />
            <mxPoint x="296" y="170" as="targetPoint" />
          </mxGeometry>
        </mxCell>
        <mxCell id="3cUWr9S7yl-lD84JsGKt-8" style="edgeStyle=orthogonalEdgeStyle;rounded=0;orthogonalLoop=1;jettySize=auto;html=1;exitX=1;exitY=0.5;exitDx=0;exitDy=0;entryX=1;entryY=0.5;entryDx=0;entryDy=0;" edge="1" parent="1" source="3cUWr9S7yl-lD84JsGKt-7" target="3cUWr9S7yl-lD84JsGKt-4">
          <mxGeometry relative="1" as="geometry">
            <Array as="points">
              <mxPoint x="390" y="230" />
              <mxPoint x="390" y="160" />
            </Array>
          </mxGeometry>
        </mxCell>
        <mxCell id="3cUWr9S7yl-lD84JsGKt-14" style="edgeStyle=orthogonalEdgeStyle;rounded=0;orthogonalLoop=1;jettySize=auto;html=1;exitX=0;exitY=0.5;exitDx=0;exitDy=0;entryX=0.5;entryY=0;entryDx=0;entryDy=0;" edge="1" parent="1" source="3cUWr9S7yl-lD84JsGKt-7" target="3cUWr9S7yl-lD84JsGKt-19">
          <mxGeometry relative="1" as="geometry">
            <mxPoint y="274" as="targetPoint" />
            <mxPoint x="222.4999999999999" y="234" as="sourcePoint" />
          </mxGeometry>
        </mxCell>
        <mxCell id="3cUWr9S7yl-lD84JsGKt-21" style="edgeStyle=orthogonalEdgeStyle;rounded=0;orthogonalLoop=1;jettySize=auto;html=1;exitX=1;exitY=0.5;exitDx=0;exitDy=0;entryX=0.5;entryY=0;entryDx=0;entryDy=0;" edge="1" parent="1" source="3cUWr9S7yl-lD84JsGKt-7" target="3cUWr9S7yl-lD84JsGKt-20">
          <mxGeometry relative="1" as="geometry" />
        </mxCell>
        <mxCell id="3cUWr9S7yl-lD84JsGKt-28" style="edgeStyle=orthogonalEdgeStyle;rounded=0;orthogonalLoop=1;jettySize=auto;html=1;exitX=0.885;exitY=0.667;exitDx=0;exitDy=0;entryX=0.5;entryY=0;entryDx=0;entryDy=0;exitPerimeter=0;" edge="1" parent="1" target="3cUWr9S7yl-lD84JsGKt-18">
          <mxGeometry relative="1" as="geometry">
            <mxPoint x="318.0250000000001" y="240.01999999999998" as="sourcePoint" />
            <mxPoint x="516.5" y="264" as="targetPoint" />
          </mxGeometry>
        </mxCell>
        <mxCell id="3cUWr9S7yl-lD84JsGKt-31" style="edgeStyle=orthogonalEdgeStyle;rounded=0;orthogonalLoop=1;jettySize=auto;html=1;exitX=0.122;exitY=0.652;exitDx=0;exitDy=0;entryX=0.5;entryY=0;entryDx=0;entryDy=0;exitPerimeter=0;" edge="1" parent="1" target="3cUWr9S7yl-lD84JsGKt-30">
          <mxGeometry relative="1" as="geometry">
            <mxPoint x="380.42999999999984" y="239.12000000000012" as="sourcePoint" />
          </mxGeometry>
        </mxCell>
        <mxCell id="3cUWr9S7yl-lD84JsGKt-7" value="Authen" style="rhombus;whiteSpace=wrap;html=1;" vertex="1" parent="1">
          <mxGeometry x="262.5" y="200" width="65" height="60" as="geometry" />
        </mxCell>
        <mxCell id="3cUWr9S7yl-lD84JsGKt-12" value="&lt;font style=&quot;font-size: 12px;&quot;&gt;Invalid&lt;/font&gt;" style="text;html=1;align=center;verticalAlign=middle;whiteSpace=wrap;rounded=0;" vertex="1" parent="1">
          <mxGeometry x="390" y="170" width="60" height="30" as="geometry" />
        </mxCell>
        <mxCell id="3cUWr9S7yl-lD84JsGKt-13" value="&lt;font style=&quot;font-size: 12px;&quot;&gt;Valid&lt;/font&gt;" style="text;html=1;align=center;verticalAlign=middle;whiteSpace=wrap;rounded=0;" vertex="1" parent="1">
          <mxGeometry x="210" y="200" width="60" height="30" as="geometry" />
        </mxCell>
        <mxCell id="3cUWr9S7yl-lD84JsGKt-18" value="Teacher" style="rounded=1;whiteSpace=wrap;html=1;fillColor=default;strokeColor=default;perimeterSpacing=1;fontSize=14;" vertex="1" parent="1">
          <mxGeometry x="451" y="262" width="115" height="20" as="geometry" />
        </mxCell>
        <mxCell id="3cUWr9S7yl-lD84JsGKt-29" style="edgeStyle=orthogonalEdgeStyle;rounded=0;orthogonalLoop=1;jettySize=auto;html=1;exitX=0.5;exitY=1;exitDx=0;exitDy=0;" edge="1" parent="1" source="3cUWr9S7yl-lD84JsGKt-19">
          <mxGeometry relative="1" as="geometry">
            <mxPoint x="-390" y="320" as="targetPoint" />
          </mxGeometry>
        </mxCell>
        <mxCell id="3cUWr9S7yl-lD84JsGKt-19" value="Admin" style="rounded=1;whiteSpace=wrap;html=1;fillColor=default;strokeColor=default;perimeterSpacing=1;fontSize=14;" vertex="1" parent="1">
          <mxGeometry x="-448" y="260" width="115" height="20" as="geometry" />
        </mxCell>
        <mxCell id="3cUWr9S7yl-lD84JsGKt-20" value="Coaching Admin" style="rounded=1;whiteSpace=wrap;html=1;fillColor=default;strokeColor=default;perimeterSpacing=1;fontSize=14;" vertex="1" parent="1">
          <mxGeometry x="891" y="260" width="115" height="20" as="geometry" />
        </mxCell>
        <mxCell id="3cUWr9S7yl-lD84JsGKt-22" value="" style="endArrow=none;html=1;rounded=0;strokeWidth=1;" edge="1" parent="1">
          <mxGeometry width="50" height="50" relative="1" as="geometry">
            <mxPoint x="-547" y="320" as="sourcePoint" />
            <mxPoint x="-227" y="320" as="targetPoint" />
          </mxGeometry>
        </mxCell>
        <mxCell id="3cUWr9S7yl-lD84JsGKt-24" value="" style="endArrow=none;html=1;rounded=0;strokeWidth=2;" edge="1" parent="1">
          <mxGeometry width="50" height="50" relative="1" as="geometry">
            <mxPoint x="-547" y="327" as="sourcePoint" />
            <mxPoint x="-227" y="327" as="targetPoint" />
          </mxGeometry>
        </mxCell>
        <mxCell id="3cUWr9S7yl-lD84JsGKt-30" value="Student" style="rounded=1;whiteSpace=wrap;html=1;fillColor=default;strokeColor=default;perimeterSpacing=1;fontSize=14;" vertex="1" parent="1">
          <mxGeometry x="51" y="260" width="115" height="20" as="geometry" />
        </mxCell>
        <mxCell id="3cUWr9S7yl-lD84JsGKt-32" style="edgeStyle=orthogonalEdgeStyle;rounded=0;orthogonalLoop=1;jettySize=auto;html=1;exitX=0.5;exitY=1;exitDx=0;exitDy=0;" edge="1" parent="1">
          <mxGeometry relative="1" as="geometry">
            <mxPoint x="112" y="320" as="targetPoint" />
            <mxPoint x="112" y="281" as="sourcePoint" />
          </mxGeometry>
        </mxCell>
        <mxCell id="3cUWr9S7yl-lD84JsGKt-33" value="" style="endArrow=none;html=1;rounded=0;strokeWidth=1;" edge="1" parent="1">
          <mxGeometry width="50" height="50" relative="1" as="geometry">
            <mxPoint x="-45" y="320" as="sourcePoint" />
            <mxPoint x="275" y="320" as="targetPoint" />
          </mxGeometry>
        </mxCell>
        <mxCell id="3cUWr9S7yl-lD84JsGKt-34" value="" style="endArrow=none;html=1;rounded=0;strokeWidth=2;" edge="1" parent="1">
          <mxGeometry width="50" height="50" relative="1" as="geometry">
            <mxPoint x="-45" y="327" as="sourcePoint" />
            <mxPoint x="275" y="327" as="targetPoint" />
          </mxGeometry>
        </mxCell>
        <mxCell id="3cUWr9S7yl-lD84JsGKt-38" style="edgeStyle=orthogonalEdgeStyle;rounded=0;orthogonalLoop=1;jettySize=auto;html=1;exitX=0.5;exitY=1;exitDx=0;exitDy=0;" edge="1" parent="1">
          <mxGeometry relative="1" as="geometry">
            <mxPoint x="511" y="322" as="targetPoint" />
            <mxPoint x="511" y="283" as="sourcePoint" />
          </mxGeometry>
        </mxCell>
        <mxCell id="3cUWr9S7yl-lD84JsGKt-39" value="" style="endArrow=none;html=1;rounded=0;strokeWidth=1;" edge="1" parent="1">
          <mxGeometry width="50" height="50" relative="1" as="geometry">
            <mxPoint x="354" y="322" as="sourcePoint" />
            <mxPoint x="674" y="322" as="targetPoint" />
          </mxGeometry>
        </mxCell>
        <mxCell id="3cUWr9S7yl-lD84JsGKt-40" value="" style="endArrow=none;html=1;rounded=0;strokeWidth=2;" edge="1" parent="1">
          <mxGeometry width="50" height="50" relative="1" as="geometry">
            <mxPoint x="354" y="329" as="sourcePoint" />
            <mxPoint x="674" y="329" as="targetPoint" />
          </mxGeometry>
        </mxCell>
        <mxCell id="3cUWr9S7yl-lD84JsGKt-41" style="edgeStyle=orthogonalEdgeStyle;rounded=0;orthogonalLoop=1;jettySize=auto;html=1;exitX=0.5;exitY=1;exitDx=0;exitDy=0;" edge="1" parent="1">
          <mxGeometry relative="1" as="geometry">
            <mxPoint x="949" y="320" as="targetPoint" />
            <mxPoint x="949" y="281" as="sourcePoint" />
          </mxGeometry>
        </mxCell>
        <mxCell id="3cUWr9S7yl-lD84JsGKt-42" value="" style="endArrow=none;html=1;rounded=0;strokeWidth=1;" edge="1" parent="1">
          <mxGeometry width="50" height="50" relative="1" as="geometry">
            <mxPoint x="792" y="320" as="sourcePoint" />
            <mxPoint x="1112" y="320" as="targetPoint" />
          </mxGeometry>
        </mxCell>
        <mxCell id="3cUWr9S7yl-lD84JsGKt-43" value="" style="endArrow=none;html=1;rounded=0;strokeWidth=2;" edge="1" parent="1">
          <mxGeometry width="50" height="50" relative="1" as="geometry">
            <mxPoint x="792" y="327" as="sourcePoint" />
            <mxPoint x="1112" y="327" as="targetPoint" />
          </mxGeometry>
        </mxCell>
        <mxCell id="3cUWr9S7yl-lD84JsGKt-50" value="Manage Users" style="rounded=1;whiteSpace=wrap;html=1;" vertex="1" parent="1">
          <mxGeometry x="-588" y="359" width="70" height="40" as="geometry" />
        </mxCell>
        <mxCell id="3cUWr9S7yl-lD84JsGKt-51" value="View Tests Records" style="rounded=1;whiteSpace=wrap;html=1;" vertex="1" parent="1">
          <mxGeometry x="-470" y="361" width="70" height="40" as="geometry" />
        </mxCell>
        <mxCell id="3cUWr9S7yl-lD84JsGKt-54" value="Manage Feedbacks" style="rounded=1;whiteSpace=wrap;html=1;" vertex="1" parent="1">
          <mxGeometry x="-370" y="360" width="70" height="40" as="geometry" />
        </mxCell>
        <mxCell id="3cUWr9S7yl-lD84JsGKt-55" value="Handle&#39;s Database" style="rounded=1;whiteSpace=wrap;html=1;" vertex="1" parent="1">
          <mxGeometry x="-255" y="361" width="70" height="40" as="geometry" />
        </mxCell>
        <mxCell id="3cUWr9S7yl-lD84JsGKt-56" value="Take Test" style="rounded=1;whiteSpace=wrap;html=1;" vertex="1" parent="1">
          <mxGeometry x="-96" y="360" width="70" height="40" as="geometry" />
        </mxCell>
        <mxCell id="3cUWr9S7yl-lD84JsGKt-57" value="View History" style="rounded=1;whiteSpace=wrap;html=1;" vertex="1" parent="1">
          <mxGeometry x="-4" y="360" width="70" height="40" as="geometry" />
        </mxCell>
        <mxCell id="3cUWr9S7yl-lD84JsGKt-58" value="&lt;font style=&quot;font-size: 11px;&quot;&gt;Check Progress Report&lt;/font&gt;" style="rounded=1;whiteSpace=wrap;html=1;" vertex="1" parent="1">
          <mxGeometry x="85" y="360" width="70" height="40" as="geometry" />
        </mxCell>
        <mxCell id="3cUWr9S7yl-lD84JsGKt-59" value="Give Feedback" style="rounded=1;whiteSpace=wrap;html=1;" vertex="1" parent="1">
          <mxGeometry x="174" y="360" width="70" height="40" as="geometry" />
        </mxCell>
        <mxCell id="3cUWr9S7yl-lD84JsGKt-60" value="View Past Test Review" style="rounded=1;whiteSpace=wrap;html=1;" vertex="1" parent="1">
          <mxGeometry x="265" y="360" width="70" height="40" as="geometry" />
        </mxCell>
        <mxCell id="3cUWr9S7yl-lD84JsGKt-61" value="Create Test" style="rounded=1;whiteSpace=wrap;html=1;" vertex="1" parent="1">
          <mxGeometry x="382" y="359" width="70" height="41" as="geometry" />
        </mxCell>
        <mxCell id="3cUWr9S7yl-lD84JsGKt-62" value="Grade Test" style="rounded=1;whiteSpace=wrap;html=1;" vertex="1" parent="1">
          <mxGeometry x="472" y="359" width="70" height="41" as="geometry" />
        </mxCell>
        <mxCell id="3cUWr9S7yl-lD84JsGKt-63" value="Delete Test" style="rounded=1;whiteSpace=wrap;html=1;" vertex="1" parent="1">
          <mxGeometry x="562" y="359" width="70" height="41" as="geometry" />
        </mxCell>
        <mxCell id="3cUWr9S7yl-lD84JsGKt-78" style="edgeStyle=orthogonalEdgeStyle;rounded=0;orthogonalLoop=1;jettySize=auto;html=1;entryX=0.5;entryY=0;entryDx=0;entryDy=0;" edge="1" parent="1">
          <mxGeometry relative="1" as="geometry">
            <mxPoint x="-390" y="340" as="sourcePoint" />
            <mxPoint x="-540.5" y="360" as="targetPoint" />
          </mxGeometry>
        </mxCell>
        <mxCell id="3cUWr9S7yl-lD84JsGKt-79" value="" style="endArrow=none;html=1;rounded=0;" edge="1" parent="1">
          <mxGeometry width="50" height="50" relative="1" as="geometry">
            <mxPoint x="-390" y="340" as="sourcePoint" />
            <mxPoint x="-390" y="328" as="targetPoint" />
          </mxGeometry>
        </mxCell>
        <mxCell id="3cUWr9S7yl-lD84JsGKt-81" style="edgeStyle=orthogonalEdgeStyle;rounded=0;orthogonalLoop=1;jettySize=auto;html=1;entryX=0.5;entryY=0;entryDx=0;entryDy=0;" edge="1" parent="1" target="3cUWr9S7yl-lD84JsGKt-51">
          <mxGeometry relative="1" as="geometry">
            <mxPoint x="-410" y="340" as="sourcePoint" />
            <mxPoint x="-530.5" y="370" as="targetPoint" />
          </mxGeometry>
        </mxCell>
        <mxCell id="3cUWr9S7yl-lD84JsGKt-82" style="edgeStyle=orthogonalEdgeStyle;rounded=0;orthogonalLoop=1;jettySize=auto;html=1;entryX=0.5;entryY=0;entryDx=0;entryDy=0;" edge="1" parent="1" target="3cUWr9S7yl-lD84JsGKt-54">
          <mxGeometry relative="1" as="geometry">
            <mxPoint x="-390" y="340" as="sourcePoint" />
            <mxPoint x="-530.5" y="370" as="targetPoint" />
            <Array as="points">
              <mxPoint x="-380" y="340" />
              <mxPoint x="-297" y="340" />
            </Array>
          </mxGeometry>
        </mxCell>
        <mxCell id="3cUWr9S7yl-lD84JsGKt-83" style="edgeStyle=orthogonalEdgeStyle;rounded=0;orthogonalLoop=1;jettySize=auto;html=1;entryX=0.5;entryY=0;entryDx=0;entryDy=0;" edge="1" parent="1" target="3cUWr9S7yl-lD84JsGKt-55">
          <mxGeometry relative="1" as="geometry">
            <mxPoint x="-390" y="340" as="sourcePoint" />
            <mxPoint x="-220" y="360" as="targetPoint" />
            <Array as="points">
              <mxPoint x="-220" y="340" />
              <mxPoint x="-220" y="359" />
            </Array>
          </mxGeometry>
        </mxCell>
        <mxCell id="3cUWr9S7yl-lD84JsGKt-84" value="" style="endArrow=none;html=1;rounded=0;" edge="1" parent="1">
          <mxGeometry width="50" height="50" relative="1" as="geometry">
            <mxPoint x="510" y="341" as="sourcePoint" />
            <mxPoint x="510" y="329" as="targetPoint" />
          </mxGeometry>
        </mxCell>
        <mxCell id="3cUWr9S7yl-lD84JsGKt-85" style="edgeStyle=orthogonalEdgeStyle;rounded=0;orthogonalLoop=1;jettySize=auto;html=1;entryX=0.5;entryY=0;entryDx=0;entryDy=0;" edge="1" parent="1" target="3cUWr9S7yl-lD84JsGKt-56">
          <mxGeometry relative="1" as="geometry">
            <mxPoint x="111" y="339" as="sourcePoint" />
            <mxPoint x="-39.5" y="359" as="targetPoint" />
          </mxGeometry>
        </mxCell>
        <mxCell id="3cUWr9S7yl-lD84JsGKt-86" style="edgeStyle=orthogonalEdgeStyle;rounded=0;orthogonalLoop=1;jettySize=auto;html=1;" edge="1" parent="1">
          <mxGeometry relative="1" as="geometry">
            <mxPoint x="111" y="339" as="sourcePoint" />
            <mxPoint x="32" y="359" as="targetPoint" />
          </mxGeometry>
        </mxCell>
        <mxCell id="3cUWr9S7yl-lD84JsGKt-90" style="edgeStyle=orthogonalEdgeStyle;rounded=0;orthogonalLoop=1;jettySize=auto;html=1;entryX=0.5;entryY=0;entryDx=0;entryDy=0;" edge="1" parent="1">
          <mxGeometry relative="1" as="geometry">
            <mxPoint x="110" y="339" as="sourcePoint" />
            <mxPoint x="298.9999999999998" y="359" as="targetPoint" />
            <Array as="points">
              <mxPoint x="140" y="339" />
              <mxPoint x="299" y="339" />
            </Array>
          </mxGeometry>
        </mxCell>
        <mxCell id="3cUWr9S7yl-lD84JsGKt-92" style="edgeStyle=orthogonalEdgeStyle;rounded=0;orthogonalLoop=1;jettySize=auto;html=1;entryX=0.5;entryY=0;entryDx=0;entryDy=0;" edge="1" parent="1" target="3cUWr9S7yl-lD84JsGKt-59">
          <mxGeometry relative="1" as="geometry">
            <mxPoint x="110" y="339" as="sourcePoint" />
            <mxPoint x="298.9999999999998" y="359" as="targetPoint" />
            <Array as="points">
              <mxPoint x="209" y="339" />
            </Array>
          </mxGeometry>
        </mxCell>
        <mxCell id="3cUWr9S7yl-lD84JsGKt-93" style="edgeStyle=orthogonalEdgeStyle;rounded=0;orthogonalLoop=1;jettySize=auto;html=1;entryX=0.5;entryY=0;entryDx=0;entryDy=0;" edge="1" parent="1" target="3cUWr9S7yl-lD84JsGKt-58">
          <mxGeometry relative="1" as="geometry">
            <mxPoint x="122" y="330" as="targetPoint" />
            <mxPoint x="110" y="340" as="sourcePoint" />
          </mxGeometry>
        </mxCell>
        <mxCell id="3cUWr9S7yl-lD84JsGKt-95" value="Manage Registeration" style="rounded=1;whiteSpace=wrap;html=1;" vertex="1" parent="1">
          <mxGeometry x="744" y="360" width="70" height="40" as="geometry" />
        </mxCell>
        <mxCell id="3cUWr9S7yl-lD84JsGKt-96" value="Add Teachers" style="rounded=1;whiteSpace=wrap;html=1;" vertex="1" parent="1">
          <mxGeometry x="836" y="360" width="70" height="40" as="geometry" />
        </mxCell>
        <mxCell id="3cUWr9S7yl-lD84JsGKt-97" value="&lt;font style=&quot;font-size: 12px;&quot;&gt;Add Students&lt;/font&gt;" style="rounded=1;whiteSpace=wrap;html=1;" vertex="1" parent="1">
          <mxGeometry x="925" y="360" width="70" height="40" as="geometry" />
        </mxCell>
        <mxCell id="3cUWr9S7yl-lD84JsGKt-98" value="&lt;span style=&quot;font-size: 12px;&quot;&gt;Manage Subscription&amp;nbsp;&lt;/span&gt;" style="rounded=1;whiteSpace=wrap;html=1;" vertex="1" parent="1">
          <mxGeometry x="1014" y="360" width="70" height="40" as="geometry" />
        </mxCell>
        <mxCell id="3cUWr9S7yl-lD84JsGKt-99" value="Manage Feedbacks" style="rounded=1;whiteSpace=wrap;html=1;" vertex="1" parent="1">
          <mxGeometry x="1105" y="360" width="70" height="40" as="geometry" />
        </mxCell>
        <mxCell id="3cUWr9S7yl-lD84JsGKt-100" value="" style="endArrow=none;html=1;rounded=0;" edge="1" parent="1">
          <mxGeometry width="50" height="50" relative="1" as="geometry">
            <mxPoint x="952" y="339" as="sourcePoint" />
            <mxPoint x="952" y="327" as="targetPoint" />
          </mxGeometry>
        </mxCell>
        <mxCell id="3cUWr9S7yl-lD84JsGKt-101" style="edgeStyle=orthogonalEdgeStyle;rounded=0;orthogonalLoop=1;jettySize=auto;html=1;entryX=0.5;entryY=0;entryDx=0;entryDy=0;" edge="1" target="3cUWr9S7yl-lD84JsGKt-95" parent="1">
          <mxGeometry relative="1" as="geometry">
            <mxPoint x="951" y="339" as="sourcePoint" />
            <mxPoint x="800.5" y="359" as="targetPoint" />
          </mxGeometry>
        </mxCell>
        <mxCell id="3cUWr9S7yl-lD84JsGKt-102" style="edgeStyle=orthogonalEdgeStyle;rounded=0;orthogonalLoop=1;jettySize=auto;html=1;" edge="1" parent="1">
          <mxGeometry relative="1" as="geometry">
            <mxPoint x="951" y="339" as="sourcePoint" />
            <mxPoint x="872" y="359" as="targetPoint" />
          </mxGeometry>
        </mxCell>
        <mxCell id="3cUWr9S7yl-lD84JsGKt-103" style="edgeStyle=orthogonalEdgeStyle;rounded=0;orthogonalLoop=1;jettySize=auto;html=1;entryX=0.5;entryY=0;entryDx=0;entryDy=0;" edge="1" parent="1">
          <mxGeometry relative="1" as="geometry">
            <mxPoint x="950" y="339" as="sourcePoint" />
            <mxPoint x="1138.9999999999998" y="359" as="targetPoint" />
            <Array as="points">
              <mxPoint x="980" y="339" />
              <mxPoint x="1139" y="339" />
            </Array>
          </mxGeometry>
        </mxCell>
        <mxCell id="3cUWr9S7yl-lD84JsGKt-104" style="edgeStyle=orthogonalEdgeStyle;rounded=0;orthogonalLoop=1;jettySize=auto;html=1;entryX=0.5;entryY=0;entryDx=0;entryDy=0;" edge="1" target="3cUWr9S7yl-lD84JsGKt-98" parent="1">
          <mxGeometry relative="1" as="geometry">
            <mxPoint x="950" y="339" as="sourcePoint" />
            <mxPoint x="1138.9999999999998" y="359" as="targetPoint" />
            <Array as="points">
              <mxPoint x="1049" y="339" />
            </Array>
          </mxGeometry>
        </mxCell>
        <mxCell id="3cUWr9S7yl-lD84JsGKt-105" style="edgeStyle=orthogonalEdgeStyle;rounded=0;orthogonalLoop=1;jettySize=auto;html=1;entryX=0.5;entryY=0;entryDx=0;entryDy=0;" edge="1" target="3cUWr9S7yl-lD84JsGKt-97" parent="1">
          <mxGeometry relative="1" as="geometry">
            <mxPoint x="962" y="330" as="targetPoint" />
            <mxPoint x="950" y="340" as="sourcePoint" />
          </mxGeometry>
        </mxCell>
        <mxCell id="3cUWr9S7yl-lD84JsGKt-106" style="edgeStyle=orthogonalEdgeStyle;rounded=0;orthogonalLoop=1;jettySize=auto;html=1;" edge="1" parent="1">
          <mxGeometry relative="1" as="geometry">
            <mxPoint x="490" y="342" as="sourcePoint" />
            <mxPoint x="415" y="358" as="targetPoint" />
            <Array as="points">
              <mxPoint x="415" y="342" />
            </Array>
          </mxGeometry>
        </mxCell>
        <mxCell id="3cUWr9S7yl-lD84JsGKt-108" style="edgeStyle=orthogonalEdgeStyle;rounded=0;orthogonalLoop=1;jettySize=auto;html=1;startSize=6;" edge="1" parent="1">
          <mxGeometry relative="1" as="geometry">
            <mxPoint x="510" y="350" as="sourcePoint" />
            <mxPoint x="510" y="360" as="targetPoint" />
            <Array as="points">
              <mxPoint x="510" y="341" />
              <mxPoint x="510" y="361" />
            </Array>
          </mxGeometry>
        </mxCell>
        <mxCell id="3cUWr9S7yl-lD84JsGKt-109" style="edgeStyle=orthogonalEdgeStyle;rounded=0;orthogonalLoop=1;jettySize=auto;html=1;" edge="1" parent="1">
          <mxGeometry relative="1" as="geometry">
            <mxPoint x="490" y="342" as="sourcePoint" />
            <mxPoint x="600" y="358" as="targetPoint" />
            <Array as="points">
              <mxPoint x="600" y="342" />
            </Array>
          </mxGeometry>
        </mxCell>
        <mxCell id="3cUWr9S7yl-lD84JsGKt-110" value="" style="endArrow=none;html=1;rounded=0;strokeWidth=1;" edge="1" parent="1">
          <mxGeometry width="50" height="50" relative="1" as="geometry">
            <mxPoint x="-547" y="478" as="sourcePoint" />
            <mxPoint x="-227" y="478" as="targetPoint" />
          </mxGeometry>
        </mxCell>
        <mxCell id="3cUWr9S7yl-lD84JsGKt-111" value="" style="endArrow=none;html=1;rounded=0;strokeWidth=2;" edge="1" parent="1">
          <mxGeometry width="50" height="50" relative="1" as="geometry">
            <mxPoint x="-547" y="485" as="sourcePoint" />
            <mxPoint x="-227" y="485" as="targetPoint" />
          </mxGeometry>
        </mxCell>
        <mxCell id="3cUWr9S7yl-lD84JsGKt-112" value="" style="endArrow=none;html=1;rounded=0;strokeWidth=1;" edge="1" parent="1">
          <mxGeometry width="50" height="50" relative="1" as="geometry">
            <mxPoint x="-38" y="481" as="sourcePoint" />
            <mxPoint x="282" y="481" as="targetPoint" />
          </mxGeometry>
        </mxCell>
        <mxCell id="3cUWr9S7yl-lD84JsGKt-113" value="" style="endArrow=none;html=1;rounded=0;strokeWidth=2;" edge="1" parent="1">
          <mxGeometry width="50" height="50" relative="1" as="geometry">
            <mxPoint x="-38" y="488" as="sourcePoint" />
            <mxPoint x="282" y="488" as="targetPoint" />
          </mxGeometry>
        </mxCell>
        <mxCell id="3cUWr9S7yl-lD84JsGKt-114" value="" style="endArrow=none;html=1;rounded=0;strokeWidth=1;" edge="1" parent="1">
          <mxGeometry width="50" height="50" relative="1" as="geometry">
            <mxPoint x="354" y="481" as="sourcePoint" />
            <mxPoint x="674" y="481" as="targetPoint" />
          </mxGeometry>
        </mxCell>
        <mxCell id="3cUWr9S7yl-lD84JsGKt-115" value="" style="endArrow=none;html=1;rounded=0;strokeWidth=2;" edge="1" parent="1">
          <mxGeometry width="50" height="50" relative="1" as="geometry">
            <mxPoint x="354" y="488" as="sourcePoint" />
            <mxPoint x="674" y="488" as="targetPoint" />
          </mxGeometry>
        </mxCell>
        <mxCell id="3cUWr9S7yl-lD84JsGKt-116" value="" style="endArrow=none;html=1;rounded=0;strokeWidth=1;" edge="1" parent="1">
          <mxGeometry width="50" height="50" relative="1" as="geometry">
            <mxPoint x="793" y="482" as="sourcePoint" />
            <mxPoint x="1113" y="482" as="targetPoint" />
          </mxGeometry>
        </mxCell>
        <mxCell id="3cUWr9S7yl-lD84JsGKt-117" value="" style="endArrow=none;html=1;rounded=0;strokeWidth=2;" edge="1" parent="1">
          <mxGeometry width="50" height="50" relative="1" as="geometry">
            <mxPoint x="793" y="489" as="sourcePoint" />
            <mxPoint x="1113" y="489" as="targetPoint" />
          </mxGeometry>
        </mxCell>
        <mxCell id="3cUWr9S7yl-lD84JsGKt-120" value="" style="endArrow=none;html=1;rounded=0;curved=1;exitX=0.5;exitY=1;exitDx=0;exitDy=0;" edge="1" parent="1" source="3cUWr9S7yl-lD84JsGKt-50">
          <mxGeometry width="50" height="50" relative="1" as="geometry">
            <mxPoint x="-553" y="419" as="sourcePoint" />
            <mxPoint x="-390" y="450" as="targetPoint" />
            <Array as="points">
              <mxPoint x="-510" y="440" />
            </Array>
          </mxGeometry>
        </mxCell>
        <mxCell id="3cUWr9S7yl-lD84JsGKt-122" value="" style="endArrow=none;html=1;rounded=0;entryX=0.5;entryY=1;entryDx=0;entryDy=0;curved=1;" edge="1" parent="1" target="3cUWr9S7yl-lD84JsGKt-51">
          <mxGeometry width="50" height="50" relative="1" as="geometry">
            <mxPoint x="-390" y="450" as="sourcePoint" />
            <mxPoint x="-435.0000000000002" y="421" as="targetPoint" />
            <Array as="points">
              <mxPoint x="-420" y="440" />
            </Array>
          </mxGeometry>
        </mxCell>
        <mxCell id="3cUWr9S7yl-lD84JsGKt-124" value="" style="endArrow=none;html=1;rounded=0;entryX=0.5;entryY=1;entryDx=0;entryDy=0;curved=1;" edge="1" parent="1" target="3cUWr9S7yl-lD84JsGKt-54">
          <mxGeometry width="50" height="50" relative="1" as="geometry">
            <mxPoint x="-390" y="450" as="sourcePoint" />
            <mxPoint x="-335.0000000000002" y="420" as="targetPoint" />
            <Array as="points">
              <mxPoint x="-350" y="440" />
            </Array>
          </mxGeometry>
        </mxCell>
        <mxCell id="3cUWr9S7yl-lD84JsGKt-125" value="" style="endArrow=none;html=1;rounded=0;entryX=0.5;entryY=1;entryDx=0;entryDy=0;curved=1;" edge="1" parent="1" target="3cUWr9S7yl-lD84JsGKt-55">
          <mxGeometry width="50" height="50" relative="1" as="geometry">
            <mxPoint x="-390" y="450" as="sourcePoint" />
            <mxPoint x="-220.00000000000023" y="421" as="targetPoint" />
            <Array as="points">
              <mxPoint x="-300" y="450" />
            </Array>
          </mxGeometry>
        </mxCell>
        <mxCell id="3cUWr9S7yl-lD84JsGKt-126" style="edgeStyle=orthogonalEdgeStyle;rounded=0;orthogonalLoop=1;jettySize=auto;html=1;startSize=6;" edge="1" parent="1">
          <mxGeometry relative="1" as="geometry">
            <mxPoint x="-389" y="449" as="sourcePoint" />
            <mxPoint x="-389" y="479" as="targetPoint" />
            <Array as="points">
              <mxPoint x="-389" y="460" />
              <mxPoint x="-389" y="480" />
            </Array>
          </mxGeometry>
        </mxCell>
        <mxCell id="3cUWr9S7yl-lD84JsGKt-127" value="" style="endArrow=none;html=1;rounded=0;entryX=0.5;entryY=1;entryDx=0;entryDy=0;curved=1;" edge="1" parent="1" target="3cUWr9S7yl-lD84JsGKt-56">
          <mxGeometry width="50" height="50" relative="1" as="geometry">
            <mxPoint x="120" y="450" as="sourcePoint" />
            <mxPoint x="140" y="360" as="targetPoint" />
            <Array as="points">
              <mxPoint x="10" y="440" />
            </Array>
          </mxGeometry>
        </mxCell>
        <mxCell id="3cUWr9S7yl-lD84JsGKt-128" value="" style="endArrow=none;html=1;rounded=0;entryX=0.5;entryY=1;entryDx=0;entryDy=0;curved=1;" edge="1" parent="1" target="3cUWr9S7yl-lD84JsGKt-57">
          <mxGeometry width="50" height="50" relative="1" as="geometry">
            <mxPoint x="120" y="450" as="sourcePoint" />
            <mxPoint x="-51" y="410" as="targetPoint" />
            <Array as="points">
              <mxPoint x="60" y="440" />
            </Array>
          </mxGeometry>
        </mxCell>
        <mxCell id="3cUWr9S7yl-lD84JsGKt-129" value="" style="endArrow=none;html=1;rounded=0;entryX=0.5;entryY=1;entryDx=0;entryDy=0;curved=1;" edge="1" parent="1" target="3cUWr9S7yl-lD84JsGKt-58">
          <mxGeometry width="50" height="50" relative="1" as="geometry">
            <mxPoint x="120" y="450" as="sourcePoint" />
            <mxPoint x="41" y="410" as="targetPoint" />
          </mxGeometry>
        </mxCell>
        <mxCell id="3cUWr9S7yl-lD84JsGKt-130" value="" style="endArrow=none;html=1;rounded=0;entryX=0.5;entryY=1;entryDx=0;entryDy=0;curved=1;" edge="1" parent="1" target="3cUWr9S7yl-lD84JsGKt-59">
          <mxGeometry width="50" height="50" relative="1" as="geometry">
            <mxPoint x="120" y="450" as="sourcePoint" />
            <mxPoint x="41" y="410" as="targetPoint" />
            <Array as="points">
              <mxPoint x="190" y="430" />
            </Array>
          </mxGeometry>
        </mxCell>
        <mxCell id="3cUWr9S7yl-lD84JsGKt-131" value="" style="endArrow=none;html=1;rounded=0;entryX=0.5;entryY=1;entryDx=0;entryDy=0;curved=1;" edge="1" parent="1" target="3cUWr9S7yl-lD84JsGKt-60">
          <mxGeometry width="50" height="50" relative="1" as="geometry">
            <mxPoint x="120" y="450" as="sourcePoint" />
            <mxPoint x="219" y="410" as="targetPoint" />
            <Array as="points">
              <mxPoint x="220" y="440" />
            </Array>
          </mxGeometry>
        </mxCell>
        <mxCell id="3cUWr9S7yl-lD84JsGKt-132" style="edgeStyle=orthogonalEdgeStyle;rounded=0;orthogonalLoop=1;jettySize=auto;html=1;startSize=6;" edge="1" parent="1">
          <mxGeometry relative="1" as="geometry">
            <mxPoint x="120" y="450" as="sourcePoint" />
            <mxPoint x="120" y="480" as="targetPoint" />
            <Array as="points">
              <mxPoint x="120" y="461" />
              <mxPoint x="120" y="481" />
            </Array>
          </mxGeometry>
        </mxCell>
        <mxCell id="3cUWr9S7yl-lD84JsGKt-133" style="edgeStyle=orthogonalEdgeStyle;rounded=0;orthogonalLoop=1;jettySize=auto;html=1;startSize=6;" edge="1" parent="1">
          <mxGeometry relative="1" as="geometry">
            <mxPoint x="509" y="450" as="sourcePoint" />
            <mxPoint x="509" y="480" as="targetPoint" />
            <Array as="points">
              <mxPoint x="509" y="461" />
              <mxPoint x="509" y="481" />
            </Array>
          </mxGeometry>
        </mxCell>
        <mxCell id="3cUWr9S7yl-lD84JsGKt-134" value="" style="endArrow=none;html=1;rounded=0;entryX=0.5;entryY=1;entryDx=0;entryDy=0;curved=1;" edge="1" parent="1" target="3cUWr9S7yl-lD84JsGKt-61">
          <mxGeometry width="50" height="50" relative="1" as="geometry">
            <mxPoint x="510" y="450" as="sourcePoint" />
            <mxPoint x="470" y="360" as="targetPoint" />
            <Array as="points">
              <mxPoint x="450" y="440" />
            </Array>
          </mxGeometry>
        </mxCell>
        <mxCell id="3cUWr9S7yl-lD84JsGKt-136" value="" style="endArrow=none;html=1;rounded=0;entryX=0.5;entryY=1;entryDx=0;entryDy=0;" edge="1" parent="1">
          <mxGeometry width="50" height="50" relative="1" as="geometry">
            <mxPoint x="509" y="449" as="sourcePoint" />
            <mxPoint x="509" y="399" as="targetPoint" />
          </mxGeometry>
        </mxCell>
        <mxCell id="3cUWr9S7yl-lD84JsGKt-137" value="" style="endArrow=none;html=1;rounded=0;entryX=0.5;entryY=1;entryDx=0;entryDy=0;curved=1;" edge="1" parent="1">
          <mxGeometry width="50" height="50" relative="1" as="geometry">
            <mxPoint x="510" y="449" as="sourcePoint" />
            <mxPoint x="597" y="399" as="targetPoint" />
            <Array as="points">
              <mxPoint x="570" y="440" />
            </Array>
          </mxGeometry>
        </mxCell>
        <mxCell id="3cUWr9S7yl-lD84JsGKt-138" style="edgeStyle=orthogonalEdgeStyle;rounded=0;orthogonalLoop=1;jettySize=auto;html=1;startSize=6;" edge="1" parent="1">
          <mxGeometry relative="1" as="geometry">
            <mxPoint x="957" y="453" as="sourcePoint" />
            <mxPoint x="957" y="483" as="targetPoint" />
            <Array as="points">
              <mxPoint x="957" y="464" />
              <mxPoint x="957" y="484" />
            </Array>
          </mxGeometry>
        </mxCell>
        <mxCell id="3cUWr9S7yl-lD84JsGKt-139" value="" style="endArrow=none;html=1;rounded=0;entryX=0.5;entryY=1;entryDx=0;entryDy=0;curved=1;" edge="1" parent="1">
          <mxGeometry width="50" height="50" relative="1" as="geometry">
            <mxPoint x="957" y="452" as="sourcePoint" />
            <mxPoint x="775.9999999999995" y="402" as="targetPoint" />
            <Array as="points">
              <mxPoint x="850" y="440" />
            </Array>
          </mxGeometry>
        </mxCell>
        <mxCell id="3cUWr9S7yl-lD84JsGKt-140" value="" style="endArrow=none;html=1;rounded=0;entryX=0.5;entryY=1;entryDx=0;entryDy=0;curved=1;" edge="1" parent="1">
          <mxGeometry width="50" height="50" relative="1" as="geometry">
            <mxPoint x="958" y="452" as="sourcePoint" />
            <mxPoint x="869" y="402" as="targetPoint" />
            <Array as="points">
              <mxPoint x="890" y="440" />
            </Array>
          </mxGeometry>
        </mxCell>
        <mxCell id="3cUWr9S7yl-lD84JsGKt-141" value="" style="endArrow=none;html=1;rounded=0;entryX=0.5;entryY=1;entryDx=0;entryDy=0;curved=1;" edge="1" parent="1">
          <mxGeometry width="50" height="50" relative="1" as="geometry">
            <mxPoint x="957" y="451" as="sourcePoint" />
            <mxPoint x="957" y="401" as="targetPoint" />
          </mxGeometry>
        </mxCell>
        <mxCell id="3cUWr9S7yl-lD84JsGKt-142" value="" style="endArrow=none;html=1;rounded=0;entryX=0.5;entryY=1;entryDx=0;entryDy=0;curved=1;" edge="1" parent="1">
          <mxGeometry width="50" height="50" relative="1" as="geometry">
            <mxPoint x="958" y="450" as="sourcePoint" />
            <mxPoint x="1046.9999999999995" y="400" as="targetPoint" />
            <Array as="points">
              <mxPoint x="1030" y="440" />
            </Array>
          </mxGeometry>
        </mxCell>
        <mxCell id="3cUWr9S7yl-lD84JsGKt-143" value="" style="endArrow=none;html=1;rounded=0;entryX=0.5;entryY=1;entryDx=0;entryDy=0;curved=1;" edge="1" parent="1" target="3cUWr9S7yl-lD84JsGKt-99">
          <mxGeometry width="50" height="50" relative="1" as="geometry">
            <mxPoint x="959" y="452" as="sourcePoint" />
            <mxPoint x="777.9999999999995" y="402" as="targetPoint" />
            <Array as="points">
              <mxPoint x="1050" y="440" />
            </Array>
          </mxGeometry>
        </mxCell>
        <mxCell id="3cUWr9S7yl-lD84JsGKt-145" value="" style="ellipse;whiteSpace=wrap;html=1;aspect=fixed;fillColor=#1ba1e2;strokeColor=#006EAF;fontColor=#ffffff;" vertex="1" parent="1">
          <mxGeometry x="270" y="650" width="50" height="50" as="geometry" />
        </mxCell>
        <mxCell id="3cUWr9S7yl-lD84JsGKt-146" value="" style="ellipse;whiteSpace=wrap;html=1;aspect=fixed;fillColor=none;strokeColor=#006EAF;fontColor=#ffffff;" vertex="1" parent="1">
          <mxGeometry x="265" y="645" width="60" height="60" as="geometry" />
        </mxCell>
        <mxCell id="3cUWr9S7yl-lD84JsGKt-147" value="" style="endArrow=classic;html=1;rounded=0;entryX=0;entryY=0;entryDx=0;entryDy=0;" edge="1" parent="1" target="3cUWr9S7yl-lD84JsGKt-146">
          <mxGeometry width="50" height="50" relative="1" as="geometry">
            <mxPoint x="-390" y="490" as="sourcePoint" />
            <mxPoint x="-140" y="510" as="targetPoint" />
          </mxGeometry>
        </mxCell>
        <mxCell id="3cUWr9S7yl-lD84JsGKt-148" value="" style="endArrow=classic;html=1;rounded=0;entryX=0.5;entryY=0;entryDx=0;entryDy=0;" edge="1" parent="1" target="3cUWr9S7yl-lD84JsGKt-146">
          <mxGeometry width="50" height="50" relative="1" as="geometry">
            <mxPoint x="120" y="490" as="sourcePoint" />
            <mxPoint x="-140" y="510" as="targetPoint" />
          </mxGeometry>
        </mxCell>
        <mxCell id="3cUWr9S7yl-lD84JsGKt-149" value="" style="endArrow=classic;html=1;rounded=0;entryX=0.5;entryY=0;entryDx=0;entryDy=0;" edge="1" parent="1" target="3cUWr9S7yl-lD84JsGKt-146">
          <mxGeometry width="50" height="50" relative="1" as="geometry">
            <mxPoint x="510" y="490" as="sourcePoint" />
            <mxPoint x="640" y="510" as="targetPoint" />
          </mxGeometry>
        </mxCell>
        <mxCell id="3cUWr9S7yl-lD84JsGKt-150" value="" style="endArrow=classic;html=1;rounded=0;entryX=1;entryY=0;entryDx=0;entryDy=0;" edge="1" parent="1" target="3cUWr9S7yl-lD84JsGKt-146">
          <mxGeometry width="50" height="50" relative="1" as="geometry">
            <mxPoint x="960" y="490" as="sourcePoint" />
            <mxPoint x="530" y="510" as="targetPoint" />
          </mxGeometry>
        </mxCell>
        <mxCell id="3cUWr9S7yl-lD84JsGKt-151" value="&lt;font style=&quot;font-size: 14px;&quot;&gt;&lt;b&gt;Logout&lt;/b&gt;&lt;/font&gt;" style="text;html=1;align=center;verticalAlign=middle;whiteSpace=wrap;rounded=0;" vertex="1" parent="1">
          <mxGeometry x="340" y="660" width="60" height="30" as="geometry" />
        </mxCell>
      </root>
    </mxGraphModel>
  </diagram>
</mxfile>
